# xmcd
#
# Track frame offsets: 
#        150
#        15026
#        31547
#        47528
#        60654
#        81394
#        95396
#        113042
#        134695
#        150862
#        166177
#        182132
#
# Disc length: 2681 seconds
#
# Revision: 0
# Processed by: cddbd v1.5.2PL0 Copyright (c) Steve Scherf et al.
# Submitted via: ExactAudioCopy v1.0b4
#
DISCID=800a770c
DTITLE=Bryce Janey - Down Home Blues
DYEAR=2011
DGENRE=Blues Rock
TTITLE0=My Little Baby
TTITLE1=Sara Mae
TTITLE2=Little Red Rooster
TTITLE3=Dust Off the Bottle
TTITLE4=Country Fever
TTITLE5=Long Tall Mama
TTITLE6=She's 19 Years Old
TTITLE7=Made In the U.S.A.
TTITLE8=Heal the Night
TTITLE9=Gonna Feel Alright
TTITLE10=Gamblin' Man's Blues
TTITLE11=Down Home Blues
EXTD=
EXTT0=
EXTT1=
EXTT2=
EXTT3=
EXTT4=
EXTT5=
EXTT6=
EXTT7=
EXTT8=
EXTT9=
EXTT10=
EXTT11=
PLAYORDER=
